<?xml version="1.0" encoding="utf-8"?>
<!-- Generator: Adobe Illustrator 25.3.0, SVG Export Plug-In . SVG Version: 6.00 Build 0)  -->
<svg version="1.1" id="Layer_1" xmlns="http://www.w3.org/2000/svg" xmlns:xlink="http://www.w3.org/1999/xlink" x="0px" y="0px"
	 viewBox="0 0 24 24" style="enable-background:new 0 0 24 24;" xml:space="preserve">
<style type="text/css">
	.st0{fill:#FFFFFF;}
</style>
<path class="st0" d="M12,0C5.4,0,0,5.4,0,12s5.4,12,12,12s12-5.4,12-12S18.6,0,12,0z M9.3,16.7H6.9V9.3h2.4V16.7z M8.1,8.2
	c-0.7,0-1.3-0.6-1.3-1.4c0-0.7,0.6-1.4,1.3-1.4c0.7,0,1.3,0.6,1.3,1.4C9.5,7.6,8.9,8.2,8.1,8.2z M17.9,16.7h-2.4v-3.5
	c0-2.3-2.4-2.1-2.4,0v3.5h-2.4V9.3H13v1.3c1.1-2,4.9-2.1,4.9,1.9V16.7z"/>
</svg>
